<?xml version="1.0" encoding="iso-8859-1"?>
<!-- Generator: Adobe Illustrator 19.0.0, SVG Export Plug-In . SVG Version: 6.00 Build 0)  -->
<svg version="1.1" id="Layer_1" xmlns="http://www.w3.org/2000/svg" xmlns:xlink="http://www.w3.org/1999/xlink" x="0px" y="0px"
	 viewBox="0 0 508.016 508.016" style="enable-background:new 0 0 508.016 508.016;" xml:space="preserve">
<g>
	<path style="fill:#BCAAA4;" d="M119.6,347.633c-14.4,0-25.6,11.6-25.6,25.6c0,14.4,11.6,25.6,25.6,25.6s26-11.6,26-25.6
		C145.2,359.233,133.6,347.633,119.6,347.633z"/>
	<path style="fill:#BCAAA4;" d="M453.6,347.633c-11.6,0-20,7.6-25.2,22v6.8v0.8c5.2,14.8,13.6,22,24.8,22c14,0,25.6-11.6,25.6-25.6
		C479.2,359.233,467.6,347.633,453.6,347.633z"/>
</g>
<path style="fill:#E0E0E0;" d="M150.4,366.033v13.2h272v4.8c0-2-0.4-4-0.4-6s0.4-4,0.4-6v-6H150.4L150.4,366.033z"/>
<path style="fill:#2E7D32;" d="M421.6,377.233v-7.2c0,1.2-0.4,2.4-0.4,3.6C421.2,374.834,421.2,376.033,421.6,377.233z"/>
<path style="fill:#B2DFDB;" d="M492.4,168.033H81.6h-0.8c-0.4,0-0.8,0-0.8,0l-56.8-56.4c-3.6-3.6-10-3.6-14,0.4
	c-2,2-2.8,4.4-2.8,7.2c0,2.8,1.2,5.2,2.8,7.2l60.4,60c1.6,1.6,4,2.4,7.2,2.4h416c5.6,0,10-4.4,10-10
	C502.4,172.834,498,168.033,492.4,168.033z"/>
<rect x="82.4" y="194.033" style="fill:#795548;" width="408" height="12"/>
<g>
	<path style="fill:#EEEEEE;" d="M118.8,369.233c-2,0.4-3.6,2-3.6,4c0,2.4,2,4.4,4.4,4.4c1.2,0,2.4-0.4,3.2-1.2
		c0.8-0.8,1.2-1.6,1.2-2.8C123.6,371.233,120.4,370.033,118.8,369.233z"/>
	<path style="fill:#EEEEEE;" d="M453.2,377.633c1.2,0,2.4-0.4,3.2-1.6c0.4-0.4,0.8-1.2,0.8-2.4c-0.4-3.2-3.6-4.4-4.8-4.4
		c-2,0.4-4,2-4,4C448.8,376.033,450.8,377.633,453.2,377.633z"/>
</g>
<path d="M119.6,404.834c-17.6,0-31.6-14.4-31.6-31.6c0-17.6,14.4-31.6,31.6-31.6c17.6,0,31.6,14.4,31.6,31.6
	C151.2,390.834,137.2,404.834,119.6,404.834z M119.6,349.633c-13.2,0-23.6,10.8-23.6,23.6c0,13.2,10.8,23.6,23.6,23.6
	s23.6-10.8,23.6-23.6C143.2,360.033,132.8,349.633,119.6,349.633z"/>
<path d="M453.2,404.834c-17.6,0-31.6-14.4-31.6-31.6c0-17.6,14.4-31.6,31.6-31.6c17.6,0,31.6,14.4,31.6,31.6
	C484.8,390.834,470.4,404.834,453.2,404.834z M453.2,349.633c-13.2,0-23.6,10.8-23.6,23.6s10.8,23.6,23.6,23.6s23.6-10.8,23.6-23.6
	S466,349.633,453.2,349.633z"/>
<path d="M426.4,368.033h-276c-2.4,0-4-1.6-4-4s1.6-4,4-4h276c2.4,0,4,1.6,4,4S428.8,368.033,426.4,368.033z"/>
<path d="M426.4,384.033h-276c-2.4,0-4-1.6-4-4s1.6-4,4-4h276c2.4,0,4,1.6,4,4S428.8,384.033,426.4,384.033z"/>
<path d="M140.8,359.233c-1.6,0-2.8-0.8-3.6-2.4c-0.8-2,0-4.4,2-5.2l307.2-146c2-0.8,4.4,0,5.2,2c0.8,2,0,4.4-2,5.2l-307.2,146
	C142,358.834,141.6,359.233,140.8,359.233z"/>
<path d="M430.8,358.834c-0.4,0-1.2,0-1.6-0.4l-306-145.2c-2-0.8-2.8-3.2-2-5.2s3.2-2.8,5.2-2l306,145.2c2,0.8,2.8,3.2,2,5.2
	C434,358.033,432.4,358.834,430.8,358.834z"/>
<path d="M492.4,196.033h-416c-3.6,0-7.6-2-11.2-5.2l-60.4-60.8c-2.8-2.8-4.8-7.2-4.8-11.2c0-4.4,1.6-8.4,4.8-11.2c6-6,16-6,22.4,0.4
	l55.6,56H492c8.8,0,16,7.2,16,16C508.4,189.233,501.2,196.033,492.4,196.033z M16,111.233c-2,0-3.6,0.8-5.2,2
	c-1.6,1.6-2.4,3.6-2.4,5.6s0.8,4,2.4,5.6l60.4,60.8c2,2,4,3.2,5.6,3.2h416c4.4,0,8-3.6,8-8s-3.6-8-8-8H82c-1.2,0-2-0.4-2.8-1.2
	l-56.8-57.2C20,112.033,18,111.233,16,111.233z"/>
<path d="M492.4,212.033h-412c-2.4,0-4-1.6-4-4v-16c0-2.4,1.6-4,4-4h412c2.4,0,4,1.6,4,4v16
	C496.4,210.434,494.8,212.033,492.4,212.033z M84.4,204.033h404v-8h-404V204.033z"/>
<path d="M119.6,385.233c-6.8,0-12-5.6-12-12c0-6.8,5.6-12,12-12c2.4,0,4,1.6,4,4s-1.6,4-4,4s-4,2-4,4s2,4,4,4c2.4,0,4-2,4-4
	c0-2.4,1.6-4,4-4s4,1.6,4,4C131.6,380.033,126.4,385.233,119.6,385.233z"/>
<path d="M453.2,385.233c-6.8,0-12-5.6-12-12c0-6.8,5.6-12,12-12c2.4,0,4,1.6,4,4s-1.6,4-4,4s-4,2-4,4s2,4,4,4s4-2,4-4
	c0-2.4,1.6-4,4-4s4,1.6,4,4C465.2,380.033,459.6,385.233,453.2,385.233z"/>
<g>
</g>
<g>
</g>
<g>
</g>
<g>
</g>
<g>
</g>
<g>
</g>
<g>
</g>
<g>
</g>
<g>
</g>
<g>
</g>
<g>
</g>
<g>
</g>
<g>
</g>
<g>
</g>
<g>
</g>
</svg>
