<?xml version="1.0" encoding="iso-8859-1"?>
<!-- Generator: Adobe Illustrator 19.0.0, SVG Export Plug-In . SVG Version: 6.00 Build 0)  -->
<svg version="1.1" id="Layer_1" xmlns="http://www.w3.org/2000/svg" xmlns:xlink="http://www.w3.org/1999/xlink" x="0px" y="0px"
	 viewBox="0 0 226.262 226.262" style="enable-background:new 0 0 226.262 226.262;" xml:space="preserve">
<g>
	<g>
		<g>
			<path d="M222.222,103.029H202.02c-2.231,0-4.04,1.809-4.04,4.04v28.283H85.678c0.98-1.461,1.778-3.051,2.246-4.8
				c1.117-4.165,0.545-8.517-1.61-12.255c-2.156-3.743-5.64-6.42-9.807-7.536l-23.438-6.28c-4.171-1.115-8.523-0.543-12.257,1.616
				c-3.737,2.16-6.408,5.646-7.524,9.815c-1.117,4.163-0.545,8.515,1.61,12.255c1.988,3.451,5.136,5.936,8.877,7.185H28.283V58.585
				c0-2.231-1.809-4.04-4.04-4.04H4.04c-2.231,0-4.04,1.809-4.04,4.04v129.293c0,2.231,1.809,4.04,4.04,4.04h20.202
				c2.231,0,4.04-1.809,4.04-4.04v-24.242H197.98v24.242c0,2.231,1.809,4.04,4.04,4.04h20.202c2.231,0,4.04-1.809,4.04-4.04V107.07
				C226.263,104.839,224.453,103.029,222.222,103.029z M20.202,139.393v20.202v24.242H8.081V62.625h12.121V139.393z M41.899,124.133
				c-1.079-1.872-1.365-4.048-0.807-6.13c0.558-2.085,1.896-3.829,3.764-4.908c1.243-0.72,2.622-1.087,4.021-1.087
				c0.7,0,1.406,0.093,2.101,0.278l23.438,6.28c2.079,0.558,3.819,1.896,4.897,3.766c1.077,1.87,1.365,4.046,0.807,6.128
				c-0.558,2.085-1.896,3.829-3.764,4.908c-1.868,1.079-4.042,1.361-6.122,0.809l-23.438-6.28
				C44.717,127.339,42.977,126.003,41.899,124.133z M197.98,155.555H28.283v-12.121H197.98V155.555z M218.182,183.838h-12.121
				v-24.242v-20.202V111.11h12.121V183.838z"/>
			<path d="M121.212,90.908h8.081v8.081c0,6.684,5.449,12.121,12.145,12.121h12.074c6.696,0,12.145-5.437,12.145-12.121v-8.081
				h8.081c6.684,0,12.121-5.449,12.121-12.145V66.69c0-6.696-5.437-12.145-12.121-12.145h-8.081v-8.081
				c0-6.684-5.449-12.121-12.145-12.121h-12.074c-6.696,0-12.145,5.437-12.145,12.121v8.081h-8.081
				c-6.684,0-12.121,5.449-12.121,12.145v12.074C109.091,85.46,114.528,90.908,121.212,90.908z M165.656,62.625h8.081
				c2.265,0,4.04,1.785,4.04,4.064v12.074c0,2.241-1.813,4.064-4.04,4.064h-8.081V62.625z M137.374,46.465
				c0-2.265,1.785-4.04,4.064-4.04h12.074c2.241,0,4.064,1.813,4.064,4.04v8.081h-20.202V46.465z M137.374,62.625h20.202v20.202
				h-20.202V62.625z M137.374,90.908h20.202v8.081c0,2.265-1.785,4.04-4.064,4.04h-12.074c-2.241,0-4.064-1.813-4.064-4.04V90.908z
				 M117.172,66.69c0-2.241,1.813-4.064,4.04-4.064h8.081v20.202h-8.081c-2.265,0-4.04-1.785-4.04-4.064V66.69z"/>
		</g>
	</g>
</g>
<g>
</g>
<g>
</g>
<g>
</g>
<g>
</g>
<g>
</g>
<g>
</g>
<g>
</g>
<g>
</g>
<g>
</g>
<g>
</g>
<g>
</g>
<g>
</g>
<g>
</g>
<g>
</g>
<g>
</g>
</svg>
