<svg id="Layer_1" data-name="Layer 1" xmlns="http://www.w3.org/2000/svg" viewBox="0 0 94.16 122.88"><defs><style>.cls-1{fill-rule:evenodd;}</style></defs><title>financial-statement</title><path class="cls-1" d="M35,108l-.35,0H6.1a6.12,6.12,0,0,1-4.3-1.8,6,6,0,0,1-1.8-4.3V6.1A6,6,0,0,1,1.8,1.8,6,6,0,0,1,6.1,0H80.57a6.12,6.12,0,0,1,4.29,1.8,6,6,0,0,1,1.81,4.3V63.76L82.33,58.6a5.86,5.86,0,0,0-.82-.83V42.24H5.24v59.85a.81.81,0,0,0,.26.6.77.77,0,0,0,.6.25l26.71-.08a6.17,6.17,0,0,0,1.45,4.21L35,108Zm58.91-16.4L55.63,122.88,39,103.09l2.27-2.48L53.48,115l.15.19a3.24,3.24,0,0,0,4.57.35l1.25-1.08,0,0,5.91-5.16,26-20.72,2.51,3Zm.22-9.3-38.31,31.3L39.21,93.8,77.52,62.51,94.16,82.29ZM71.82,87.14a5.88,5.88,0,1,1-7-4.44,5.88,5.88,0,0,1,7,4.44Zm13.44-2.5L59.71,105.19a3.85,3.85,0,0,0-5.39-.46l-6.58-7.82a3.81,3.81,0,0,0,.46-5.37L73.76,71a3.83,3.83,0,0,0,5.38.46l6.59,7.82a3.83,3.83,0,0,0-.47,5.39ZM70.61,50.8v3.71a.27.27,0,0,1-.28.29H49a.27.27,0,0,1-.28-.29V50.8a.27.27,0,0,1,.28-.29H70.33a.27.27,0,0,1,.28.29Zm-8,9.49V64a.27.27,0,0,1-.29.28H49.05a.27.27,0,0,1-.29-.28V60.29a.27.27,0,0,1,.29-.28h13.3a.31.31,0,0,1,.29.28Zm-34.54-46h5.48a.33.33,0,0,1,.35.35V33.78a.33.33,0,0,1-.35.34H28.1a.32.32,0,0,1-.34-.34V14.64a.32.32,0,0,1,.34-.35Zm12.49,7.28h5.48a.32.32,0,0,1,.35.34v11.8a.33.33,0,0,1-.35.34H40.59a.33.33,0,0,1-.34-.34V21.91a.36.36,0,0,1,.34-.34Zm25,0h5.48a.32.32,0,0,1,.34.34v11.8a.33.33,0,0,1-.34.34H65.59a.33.33,0,0,1-.35-.34V21.91a.37.37,0,0,1,.35-.34Zm-12.5-7.28h5.48a.33.33,0,0,1,.35.35V33.78a.33.33,0,0,1-.35.34H53.09a.33.33,0,0,1-.35-.34V14.64a.33.33,0,0,1,.35-.35ZM15.62,16.92h5.47a.33.33,0,0,1,.35.35V33.78a.33.33,0,0,1-.35.34H15.62a.33.33,0,0,1-.35-.34V17.27c-.07-.21.14-.35.35-.35ZM28.3,66.26l11.63.21a12.42,12.42,0,0,1-5.47,10.32L28.3,66.26Zm-.64-3.56-.14-13.54v-.89l.9.07h0a16.32,16.32,0,0,1,3.21.55,15.36,15.36,0,0,1,2.94,1.16,15.57,15.57,0,0,1,8.28,13l.07.89H42l-13.48-.41H27.8l-.14-.82Zm1.65-.82,11.83.34a14,14,0,0,0-7.32-10.8,14.92,14.92,0,0,0-3.94-1.34c-.24,0-.47-.08-.71-.1l.14,11.9ZM24.4,65.05,31,76.54a13.43,13.43,0,0,1-6.64,1.78,13.28,13.28,0,0,1-.55-26.54l.55,13.27Zm57.11-27.2V6.1a.77.77,0,0,0-.25-.6.81.81,0,0,0-.6-.26H6.1a.78.78,0,0,0-.6.26.66.66,0,0,0-.26.6V37.85Z"/></svg>