<?xml version="1.0" encoding="iso-8859-1"?>
<!-- Generator: Adobe Illustrator 19.0.0, SVG Export Plug-In . SVG Version: 6.00 Build 0)  -->
<svg version="1.1" id="Layer_1" xmlns="http://www.w3.org/2000/svg" xmlns:xlink="http://www.w3.org/1999/xlink" x="0px" y="0px"
	 viewBox="0 0 512 512" style="enable-background:new 0 0 512 512;" xml:space="preserve">
<g>
	<g>
		<g>
			<path d="M11.221,277.333c5.888,0,10.667-4.779,10.667-10.667c0-88.235,71.765-160,160-160
				c86.549,0,116.864,48.939,141.227,88.277c14.336,23.147,26.709,43.136,47.488,49.877c5.739,1.835,11.627-1.28,13.44-6.848
				c1.813-5.611-1.259-11.627-6.848-13.44c-13.333-4.331-23.808-21.227-35.947-40.811c-25.707-41.515-60.907-98.368-159.36-98.368
				c-99.989,0-181.333,81.344-181.333,181.333C0.555,272.555,5.333,277.333,11.221,277.333z"/>
			<path d="M21.888,352c1.6,0,3.221-0.363,4.779-1.131c5.269-2.645,7.403-9.045,4.779-14.315c-3.861-7.68-9.536-21.675-9.536-27.221
				c0-5.888-4.779-10.667-10.667-10.667s-10.667,4.779-10.667,10.667c0,12.544,9.835,32.832,11.797,36.779
				C14.229,349.824,18.005,352,21.888,352z"/>
			<path d="M79.616,41.728c4.843-2.197,9.003-4.288,12.885-6.315c15.936-8.171,27.456-14.08,78.72-14.08
				c57.664,0,78.891,7.872,101.376,16.235c4.075,1.515,8.192,3.051,12.501,4.523c1.131,0.405,2.283,0.576,3.456,0.576
				c4.437,0,8.555-2.773,10.091-7.211c1.92-5.568-1.045-11.627-6.635-13.547c-4.139-1.429-8.064-2.901-12.011-4.352
				C256.725,8.939,232.683,0,171.179,0c-56.427,0-70.549,7.253-88.448,16.448c-3.605,1.856-7.424,3.819-11.925,5.824
				c-5.355,2.411-7.744,8.725-5.355,14.101C67.883,41.749,74.219,44.139,79.616,41.728z"/>
			<path d="M343.445,144.277c0.171,0.213,15.445,25.067,20.267,40.299c1.451,4.523,5.675,7.424,10.176,7.424
				c1.088,0,2.176-0.171,3.243-0.491c5.611-1.813,8.704-7.808,6.912-13.419c-5.675-17.707-21.739-43.904-22.421-44.992
				c-3.115-5.035-9.707-6.613-14.677-3.499C341.931,132.693,340.352,139.243,343.445,144.277z"/>
			<path d="M69.12,299.115c-8.64-30.123-5.056-61.803,10.112-89.237c15.168-27.435,40.128-47.339,70.251-56
				c61.376-17.408,126.165,17.856,144.661,78.677c0.256,0.832,0.597,1.621,1.067,2.368c1.323,2.219,2.475,4.139,40.405,35.499
				c4.523,3.755,11.221,3.115,15.019-1.429c3.755-4.544,3.115-11.243-1.429-15.019c-25.963-21.461-33.579-28.245-35.264-29.696
				c-22.677-70.656-98.603-111.403-170.283-90.923c-35.648,10.24-65.131,33.749-83.072,66.176
				c-17.92,32.427-22.165,69.845-11.947,105.451c17.493,60.821-20.032,77.696-31.979,81.408c-5.632,1.771-8.747,7.744-6.997,13.376
				c1.429,4.565,5.653,7.488,10.197,7.488c1.045,0,2.133-0.149,3.179-0.469C55.659,396.587,87.275,362.261,69.12,299.115z"/>
			<path d="M16.341,126.464c5.035,3.008,11.584,1.451,14.699-3.584C40.32,107.605,85.952,64,171.221,64
				c82.005,0,140.352,41.536,150.869,58.88c2.048,3.285,5.547,5.12,9.131,5.12c1.899,0,3.819-0.491,5.547-1.536
				c5.013-3.072,6.635-9.621,3.584-14.677c-14.635-24.107-79.253-69.12-169.131-69.12c-95.552,0-146.773,49.899-158.464,69.12
				C9.728,116.843,11.328,123.392,16.341,126.464z"/>
			<path d="M281.173,442.688c3.712-4.523,2.987-11.221-1.579-14.933c-54.592-44.181-112.512-96.832-128.448-152.256
				c-2.368-8.213-1.387-16.853,2.752-24.341s10.944-12.885,19.136-15.253c8.235-2.325,16.896-1.365,24.363,2.752
				c7.488,4.117,12.885,10.944,15.253,19.157c7.04,24.448,31.957,55.232,76.139,94.101c4.416,3.925,11.136,3.456,15.04-0.96
				s3.477-11.157-0.96-15.04c-50.389-44.352-65.749-70.165-69.739-84.011c-3.925-13.717-12.949-25.045-25.408-31.936
				c-12.459-6.869-26.816-8.469-40.555-4.587c-13.717,3.947-25.045,12.949-31.936,25.429c-6.891,12.459-8.512,26.859-4.587,40.533
				c17.557,61.099,78.357,116.651,135.531,162.944c1.984,1.6,4.352,2.368,6.699,2.368
				C275.989,446.656,279.061,445.312,281.173,442.688z"/>
			<path d="M192.149,263.701c-1.643-5.675-7.467-8.96-13.205-7.296c-5.653,1.621-8.917,7.552-7.296,13.205
				c16.811,58.453,80.661,106.923,119.531,136.427l12.203-17.536C267.328,361.152,206.997,315.371,192.149,263.701z"/>
			<path d="M467.392,444.885l-32.021-7.979l-1.344-5.376c8.32-9.173,14.208-20.885,16.661-33.045
				c5.696-2.944,9.835-8.533,10.667-15.275l2.304-18.517c0.704-5.632-1.024-11.307-4.757-15.573
				c-1.152-1.323-2.453-2.453-3.904-3.413l0.555-11.328l1.941-1.963c5.504-5.824,12.928-18.325,1.173-36.309
				c-5.589-8.533-17.088-18.752-40.192-18.752c-6.784,0-22.123,0-37.013,9.344c-43.904,1.515-49.067,25.195-49.067,43.051
				c0,3.52,0.619,10.133,1.237,15.637c-1.579,1.003-3.051,2.219-4.288,3.669c-3.797,4.288-5.547,10.005-4.821,15.616l2.304,18.56
				c0.875,6.933,5.291,12.715,11.797,15.552c2.389,11.648,7.979,22.891,15.765,31.851l-1.557,6.272l-32.021,7.979
				c-25.899,6.485-44.032,29.696-44.032,56.448c0,5.888,4.779,10.667,10.667,10.667h213.333c5.888,0,10.667-4.8,10.667-10.688
				C511.445,474.581,493.291,451.371,467.392,444.885z"/>
			<path d="M149.397,370.091c-1.813-5.611-7.808-8.661-13.419-6.912c-5.611,1.792-8.704,7.808-6.912,13.419
				c9.131,28.544-8.811,84.523-35.797,93.269c-5.611,1.813-8.661,7.829-6.848,13.44c1.451,4.501,5.653,7.381,10.155,7.381
				c1.088,0,2.219-0.171,3.285-0.512C140.949,476.821,160.725,405.525,149.397,370.091z"/>
			<path d="M110.315,287.957c-9.259-42.048,12.651-82.048,50.944-93.035c39.552-11.285,81.045,11.563,92.395,51.115
				c3.541,12.267,12.885,26.667,46.891,57.045c4.395,3.904,11.136,3.541,15.061-0.853c3.925-4.395,3.541-11.136-0.853-15.061
				c-32.277-28.821-38.656-40.277-40.597-47.019c-14.635-50.837-67.947-80.299-118.763-65.728
				c-49.28,14.144-77.611,64.917-65.899,118.123c21.547,98.091,5.461,120.789-38.763,134.613c-5.632,1.771-8.747,7.744-6.997,13.376
				c1.429,4.565,5.653,7.488,10.197,7.488c1.045,0,2.133-0.149,3.179-0.469C118.827,428.203,132.288,387.968,110.315,287.957z"/>
			<path d="M245.781,462.805c-10.603-14.379-26.624-36.139-53.227-36.139c-36.181,0-41.877,61.653-42.645,74.005
				c-0.384,5.867,4.096,10.944,9.984,11.307c0.213,0.021,0.448,0.021,0.661,0.021c5.611,0,10.283-4.352,10.645-10.005
				c1.365-22.059,9.771-53.995,21.355-53.995c15.808,0,27.051,15.232,36.032,27.456c3.584,4.864,6.805,9.152,9.749,12.075
				c4.16,4.16,10.923,4.16,15.083,0c4.16-4.16,4.16-10.923,0-15.083C251.115,470.123,248.619,466.667,245.781,462.805z"/>
		</g>
	</g>
</g>
<g>
</g>
<g>
</g>
<g>
</g>
<g>
</g>
<g>
</g>
<g>
</g>
<g>
</g>
<g>
</g>
<g>
</g>
<g>
</g>
<g>
</g>
<g>
</g>
<g>
</g>
<g>
</g>
<g>
</g>
</svg>
