<?xml version="1.0" encoding="utf-8"?><svg version="1.1" id="Layer_1" xmlns="http://www.w3.org/2000/svg" xmlns:xlink="http://www.w3.org/1999/xlink" x="0px" y="0px" viewBox="0 0 119.1 122.88" style="enable-background:new 0 0 119.1 122.88" xml:space="preserve"><style type="text/css">.st0{fill-rule:evenodd;clip-rule:evenodd;}</style><g><path class="st0" d="M2.71,63.08l33.25-25.52v21.37h47.18V37.49l33.54,25.59L2.71,63.08L2.71,63.08z M75.05,0v54.17h-31V0L75.05,0 L75.05,0z M68.66,27.1c0,5.04-4.08,9.12-9.12,9.12c-5.04,0-9.12-4.08-9.12-9.12s4.08-9.12,9.12-9.12 C64.59,17.97,68.66,22.05,68.66,27.1L68.66,27.1z M70.33,9.96l0,34.19c-2.52,0-4.58,2.06-4.58,4.58l-12.25,0 c0-2.52-2.06-4.58-4.58-4.58l0-34.19c2.52,0,4.58-2.06,4.58-4.58h12.25C65.75,7.91,67.81,9.96,70.33,9.96L70.33,9.96L70.33,9.96z M0,116.45h8.8l1.28-3.62l3.73,0V77.72H6.19v-8.41h106.72v8.41h-7.62v35.11h3.73l1.28,3.62h8.8v6.43H0V116.45L0,116.45z M39.62,112.84V77.72H27.85v35.11h3.73H39.62L39.62,112.84z M65.43,112.84V77.72H53.67v35.11 C57.59,112.84,61.51,112.84,65.43,112.84L65.43,112.84z M91.24,112.84V77.72H79.48v35.11C83.4,112.84,87.32,112.84,91.24,112.84 L91.24,112.84z"/></g></svg>