<?xml version="1.0" encoding="iso-8859-1"?>
<!-- Generator: Adobe Illustrator 19.0.0, SVG Export Plug-In . SVG Version: 6.00 Build 0)  -->
<svg version="1.1" id="Capa_1" xmlns="http://www.w3.org/2000/svg" xmlns:xlink="http://www.w3.org/1999/xlink" x="0px" y="0px"
	 viewBox="0 0 489.7 489.7" style="enable-background:new 0 0 489.7 489.7;" xml:space="preserve">
<g>
	<g>
		<g>
			<rect x="0" width="58.3" height="489.7"/>
			<rect x="432.2" y="281.8" width="57.5" height="207.9"/>
			<path d="M185,287.7h224.6l0,0c0-39.3-31.9-70.7-70.7-70.7H185V287.7z"/>
			<ellipse cx="119.8" cy="253.8" rx="33.8" ry="33.4"/>
			<rect x="77.8" y="318.7" width="334.2" height="57.9"/>
			<path d="M312.5,0H154v158.2h158.2V0H312.5z M266.7,93.7h-19v19c0,7.9-6.4,14.4-14.4,14.4l0,0c-7.9,0-14.4-6.4-14.4-14.4v-19h-19
				c-7.9,0-14.4-6.4-14.4-14.4l0,0c0-7.9,6.4-14.4,14.4-14.4h19V45.5c0-7.9,6.4-14.4,14.4-14.4l0,0c7.9,0,14.4,6.4,14.4,14.4v19h19
				c7.9,0,14.4,6.4,14.4,14.4v0.4C281,87.3,274.6,93.7,266.7,93.7z"/>
		</g>
	</g>
</g>
<g>
</g>
<g>
</g>
<g>
</g>
<g>
</g>
<g>
</g>
<g>
</g>
<g>
</g>
<g>
</g>
<g>
</g>
<g>
</g>
<g>
</g>
<g>
</g>
<g>
</g>
<g>
</g>
<g>
</g>
</svg>
