<?xml version="1.0" encoding="iso-8859-1"?>
<!-- Generator: Adobe Illustrator 16.0.0, SVG Export Plug-In . SVG Version: 6.00 Build 0)  -->
<!DOCTYPE svg PUBLIC "-//W3C//DTD SVG 1.1//EN" "http://www.w3.org/Graphics/SVG/1.1/DTD/svg11.dtd">
<svg version="1.1" id="Capa_1" xmlns="http://www.w3.org/2000/svg" xmlns:xlink="http://www.w3.org/1999/xlink" x="0px" y="0px"
	 width="344.002px" height="344.002px" viewBox="0 0 344.002 344.002" style="enable-background:new 0 0 344.002 344.002;"
	 xml:space="preserve">
<g>
	<g>
		<path d="M66.97,93.737c2.127,0.467,4.1,0.431,10.162-4.223c2.698-2.074,6.68-5.558,10.355-10.426l1.608-2.134
			c13.772-18.317,46.015-61.202,92.583-58.875c38.411,2.806,65.634,31.804,78.733,83.879c0.445,1.773,0.709,2.859,1.014,3.689
			c1.995,8.516,5.355,19.13,10.194,22.62c1.201,0.862,2.587,1.28,3.963,1.28c2.104,0,4.175-0.979,5.503-2.815
			c2.118-2.929,1.543-6.979-1.229-9.226c-1.342-1.732-3.854-8.981-5.349-15.461c-0.086-0.381-0.216-0.76-0.366-1.121
			c-0.13-0.445-0.366-1.41-0.589-2.272c-2.074-8.251-7.591-30.175-20.961-50.797C235.321,21.23,211.767,6.658,182.579,4.554
			c-0.041,0-0.089,0-0.144-0.007c-53.79-2.745-89.106,44.212-104.178,64.268l-1.588,2.103c-4.129,5.455-8.999,8.855-10.684,9.835
			c-0.568,0.224-1.116,0.527-1.63,0.918c-2.11,1.602-3.137,4.324-2.565,6.908C62.365,91.158,64.384,93.177,66.97,93.737z"/>
		<path d="M236.793,119.747c5.119-12.785,5.242-25.997,0.335-36.236c-4.366-9.135-12.518-15.762-23.564-19.144
			c-16.215-4.962-35.871,4.043-53.88,24.674c-0.224,0.252-25.858,27.215-52.778,43.694c-0.2,0.123-19.905,11.943-40.486,17.551
			c-1.766,0.479-3.174,1.622-4.043,3.086h34.261c9.931-4.618,16.796-8.74,17.308-9.048c29.205-17.879,55.687-46.057,55.911-46.315
			c10.931-12.525,27.11-24.537,39.731-20.668c7.426,2.271,12.573,6.317,15.304,12.025c3.271,6.831,3.019,16.063-0.698,25.336
			c-4.661,11.656-15.995,24.934-32.743,38.67h20.479C222.868,142.923,232.084,131.499,236.793,119.747z"/>
		<path d="M72.57,127.515c6.935-2.082,13.215-5.653,19.472-9.206c5.286-3.011,10.542-5.715,15.401-9.413
			c9.466-7.202,17.617-15.612,25.112-24.811c3.032-3.725,6.283-7.275,9.673-10.684c1.846-1.855,3.763-3.655,5.715-5.407
			c1.02-0.912,2.053-1.802,3.102-2.685c0.525-0.445,1.068-0.883,1.602-1.321c0.135-0.116,1.191-0.939,1.465-1.157
			c4.716-3.621,9.745-6.837,15.044-9.556c4.997-2.565,10.011-4.367,16.099-5.631c2.02-0.424,2.457-0.465,3.97-0.625
			c3.676-0.382,6.783-2.799,6.783-6.785c0-3.408-3.094-7.159-6.783-6.783C164.715,36,143.75,51.317,127.597,69.113
			c-3.073,3.395-5.838,7.029-8.815,10.506c-3.895,4.559-8.151,8.809-12.595,12.826c-4.572,4.127-8.266,7.077-13.667,10.169
			c-5.715,3.287-11.546,6.605-17.472,9.486c-2.033,0.998-3.785,1.643-6.078,2.334c-3.539,1.061-5.736,4.709-4.736,8.336
			C65.19,126.278,69.03,128.583,72.57,127.515z"/>
		<path d="M205.959,96.839c-3.053-2.176-7.289-1.471-9.459,1.58c-16.494,23.115-38.468,41.263-59.567,54.955h23.613
			c17.003-12.773,33.648-28.378,46.992-47.083C209.706,103.244,209.002,99.007,205.959,96.839z"/>
		<path d="M240.958,144.345c0.54,3.28,1.43,6.276,2.621,9.028h15.41c-2.69-3.641-4.179-7.905-4.956-12.629
			C252.617,132.126,239.551,135.795,240.958,144.345z"/>
		<rect x="39.825" y="159.436" width="267.491" height="8.954"/>
		<rect x="319.473" y="155.125" width="24.529" height="17.578"/>
		<rect y="155.125" width="24.53" height="17.578"/>
		<path d="M251.607,194.923c5.394,3.183,9.264,5.171,14.35,6.738c8.336,2.563,4.773,15.659-3.601,13.076
			c-18.568-5.722-35.546-18.699-44.55-35.967H180.04c-3.094,2.114-6.155,4.164-9.099,6.05
			c-16.407,10.514-57.771,36.33-87.376,48.988c-0.869,0.366-1.779,0.544-2.662,0.544c-2.635,0-5.142-1.543-6.242-4.113
			c-1.472-3.446,0.13-7.433,3.574-8.904c24.53-10.485,57.741-30.525,76.931-42.562h-34.749
			c-21.498,11.475-39.229,18.001-45.597,20.184l-0.24,0.083c-0.759,0.271-1.538,0.407-2.312,0.407c-2.738,0-5.313-1.67-6.339-4.381
			c-1.328-3.504,0.438-7.416,3.936-8.736c0.07-0.031,0.251-0.096,0.553-0.202c3.354-1.149,10.061-3.583,18.815-7.357H39.822v160.8
			H307.31V178.774h-73.891C238.186,185.385,244.664,190.813,251.607,194.923z M221.428,315.633
			c-2.047,3.138-6.249,4.018-9.388,1.975c-4.048-2.643-7.826-5.339-11.166-7.721c-8.651-6.177-16.132-11.491-21.088-10.649
			c-5.003,0.869-17.902,11.525-26.985,20.909c-1.33,1.369-3.103,2.061-4.875,2.061c-1.696,0-3.403-0.637-4.717-1.91
			c-2.692-2.601-2.757-6.893-0.158-9.589c3.668-3.785,22.564-22.784,34.429-24.831c10.533-1.824,20.149,5.041,31.271,12.977
			c3.381,2.413,6.885,4.908,10.697,7.399C222.591,308.296,223.474,312.499,221.428,315.633z M246.43,281.216
			c-1.273,3.528-5.171,5.346-8.688,4.072c-6.786-2.457-15.855-8.056-25.465-13.989c-9.116-5.63-24.369-15.037-28.592-14.75
			c-6.786,1.171-38.036,23.986-49.792,32.576c-3.67,2.676-6.831,4.982-9.084,6.577c-1.191,0.831-2.555,1.238-3.906,1.238
			c-2.127,0-4.223-0.999-5.544-2.867c-2.156-3.06-1.43-7.286,1.629-9.442c2.163-1.536,5.292-3.818,8.905-6.454
			c29.562-21.58,47.171-33.551,55.558-34.995c8.271-1.43,19.812,5.373,37.966,16.581c8.59,5.314,17.47,10.8,22.942,12.778
			C245.875,273.807,247.703,277.695,246.43,281.216z M263.615,247.902c-1.188,3.549-5.026,5.479-8.575,4.288
			c-11.32-3.771-23.661-12.56-35.591-21.063c-11.327-8.069-25.413-18.09-31.176-17.111c-6.338,1.099-25.952,14.024-41.714,24.414
			c-19.511,12.86-37.945,25.02-48.405,27.829c-0.589,0.157-1.184,0.232-1.766,0.232c-2.993,0-5.73-1.991-6.543-5.021
			c-0.97-3.613,1.17-7.337,4.784-8.309c8.35-2.252,27.533-14.9,44.466-26.057c23.483-15.481,38.354-24.988,46.872-26.46
			c11.331-1.954,25.235,7.957,41.347,19.432c11.122,7.918,22.62,16.111,32.018,19.242C262.88,240.503,264.8,244.342,263.615,247.902
			z"/>
	</g>
</g>
<g>
</g>
<g>
</g>
<g>
</g>
<g>
</g>
<g>
</g>
<g>
</g>
<g>
</g>
<g>
</g>
<g>
</g>
<g>
</g>
<g>
</g>
<g>
</g>
<g>
</g>
<g>
</g>
<g>
</g>
</svg>
